<svg style="animation-delay: 0s; animation-direction: normal; animation-duration: 0s; animation-fill-mode: none; animation-iteration-count: 1; animation-name: none; animation-play-state: running; animation-timing-function: ease; background-attachment: scroll; background-blend-mode: normal; background-clip: border-box; background-color: rgba(0, 0, 0, 0); background-image: none; background-origin: padding-box; background-position: 0% 0%; background-repeat: repeat; background-size: auto; border-bottom-color: rgb(125, 147, 178); border-bottom-left-radius: 0px; border-bottom-right-radius: 0px; border-bottom-style: none; border-bottom-width: 0px; border-collapse: separate; border-image-outset: 0px; border-image-repeat: stretch; border-image-slice: 100%; border-image-source: none; border-image-width: 1; border-left-color: rgb(125, 147, 178); border-left-style: none; border-left-width: 0px; border-right-color: rgb(125, 147, 178); border-right-style: none; border-right-width: 0px; border-top-color: rgb(125, 147, 178); border-top-left-radius: 0px; border-top-right-radius: 0px; border-top-style: none; border-top-width: 0px; bottom: auto; box-shadow: none; box-sizing: border-box; break-after: auto; break-before: auto; break-inside: auto; caption-side: top; clear: none; clip: auto; color: rgb(125, 147, 178); content: normal; cursor: auto; direction: ltr; display: inline; empty-cells: show; float: none; font-family: Nunito, sans-serif; font-kerning: auto; font-size: 16px; font-stretch: 100%; font-style: normal; font-variant: normal; font-variant-ligatures: normal; font-variant-caps: normal; font-variant-numeric: normal; font-variant-east-asian: normal; font-weight: 200; height: 250px; image-rendering: auto; isolation: auto; justify-items: normal; justify-self: auto; left: auto; letter-spacing: normal; line-height: 32px; list-style-image: none; list-style-position: outside; list-style-type: disc; margin-bottom: 0px; margin-left: 0px; margin-right: 0px; margin-top: 0px; max-height: none; max-width: none; min-height: 0px; min-width: 0px; mix-blend-mode: normal; object-fit: fill; object-position: 50% 50%; offset-distance: 0px; offset-path: none; offset-rotate: auto 0deg; opacity: 1; orphans: 2; outline-color: rgb(125, 147, 178); outline-offset: 0px; outline-style: none; outline-width: 0px; overflow-anchor: auto; overflow-wrap: normal; overflow-x: hidden; overflow-y: hidden; padding-bottom: 0px; padding-left: 0px; padding-right: 0px; padding-top: 0px; pointer-events: auto; position: static; resize: none; right: auto; scroll-behavior: auto; speak: normal; table-layout: auto; tab-size: 8; text-align: start; text-align-last: auto; text-decoration: none solid rgb(125, 147, 178); text-decoration-line: none; text-decoration-style: solid; text-decoration-color: rgb(125, 147, 178); text-decoration-skip-ink: auto; text-underline-position: auto; text-indent: 0px; text-rendering: auto; text-shadow: none; text-size-adjust: 100%; text-overflow: clip; text-transform: none; top: auto; touch-action: auto; transition-delay: 0s; transition-duration: 0s; transition-property: all; transition-timing-function: ease; unicode-bidi: normal; vertical-align: baseline; visibility: visible; white-space: normal; widows: 2; width: 250px; will-change: auto; word-break: normal; word-spacing: 0px; z-index: auto; zoom: 1; -webkit-appearance: none; backface-visibility: visible; -webkit-border-horizontal-spacing: 0px; -webkit-border-image: none; -webkit-border-vertical-spacing: 0px; -webkit-box-align: stretch; -webkit-box-decoration-break: slice; -webkit-box-direction: normal; -webkit-box-flex: 0; -webkit-box-ordinal-group: 1; -webkit-box-orient: horizontal; -webkit-box-pack: start; -webkit-box-reflect: none; column-count: auto; column-gap: normal; column-rule-color: rgb(125, 147, 178); column-rule-style: none; column-rule-width: 0px; column-span: none; column-width: auto; align-content: normal; align-items: normal; align-self: auto; flex-basis: auto; flex-grow: 0; flex-shrink: 1; flex-direction: row; flex-wrap: nowrap; justify-content: normal; -webkit-font-smoothing: auto; grid-auto-columns: auto; grid-auto-flow: row; grid-auto-rows: auto; grid-column-end: auto; grid-column-start: auto; grid-template-areas: none; grid-template-columns: none; grid-template-rows: none; grid-row-end: auto; grid-row-start: auto; row-gap: normal; -webkit-highlight: none; hyphens: manual; -webkit-hyphenate-character: auto; -webkit-line-break: auto; -webkit-line-clamp: none; -webkit-locale: auto; -webkit-margin-before-collapse: collapse; -webkit-margin-after-collapse: collapse; -webkit-mask-box-image: none; -webkit-mask-box-image-outset: 0px; -webkit-mask-box-image-repeat: stretch; -webkit-mask-box-image-slice: 0 fill; -webkit-mask-box-image-source: none; -webkit-mask-box-image-width: auto; -webkit-mask-clip: border-box; -webkit-mask-composite: source-over; -webkit-mask-image: none; -webkit-mask-origin: border-box; -webkit-mask-position: 0% 0%; -webkit-mask-repeat: repeat; -webkit-mask-size: auto; order: 0; perspective: none; perspective-origin: 125px 125px; -webkit-print-color-adjust: economy; -webkit-rtl-ordering: logical; shape-outside: none; shape-image-threshold: 0; shape-margin: 0px; -webkit-tap-highlight-color: rgba(0, 0, 0, 0); -webkit-text-combine: none; -webkit-text-decorations-in-effect: none; -webkit-text-emphasis-color: rgb(125, 147, 178); -webkit-text-emphasis-position: over right; -webkit-text-emphasis-style: none; -webkit-text-fill-color: rgb(125, 147, 178); -webkit-text-orientation: vertical-right; -webkit-text-security: none; -webkit-text-stroke-color: rgb(125, 147, 178); -webkit-text-stroke-width: 0px; transform: none; transform-origin: 125px 125px; transform-style: flat; -webkit-user-drag: auto; -webkit-user-modify: read-only; user-select: auto; -webkit-writing-mode: horizontal-tb; -webkit-app-region: none; buffered-rendering: auto; clip-path: none; clip-rule: nonzero; mask: none; filter: none; flood-color: rgb(0, 0, 0); flood-opacity: 1; lighting-color: rgb(255, 255, 255); stop-color: rgb(0, 0, 0); stop-opacity: 1; color-interpolation: srgb; color-interpolation-filters: linearrgb; color-rendering: auto; fill: rgb(0, 0, 0); fill-opacity: 1; fill-rule: nonzero; marker-end: none; marker-mid: none; marker-start: none; mask-type: luminance; shape-rendering: auto; stroke: none; stroke-dasharray: none; stroke-dashoffset: 0px; stroke-linecap: butt; stroke-linejoin: miter; stroke-miterlimit: 4; stroke-opacity: 1; stroke-width: 1px; alignment-baseline: auto; baseline-shift: 0px; dominant-baseline: auto; text-anchor: start; writing-mode: horizontal-tb; vector-effect: none; paint-order: normal; d: none; cx: 0px; cy: 0px; x: 0px; y: 0px; r: 0px; rx: auto; ry: auto; caret-color: rgb(125, 147, 178); line-break: auto;" version="1.1" xmlns="http://www.w3.org/2000/svg" xmlns:xlink="http://www.w3.org/1999/xlink">
  <style type="text/css">svg:not(:root) { overflow: hidden; }
    *, ::after, ::before { box-sizing: inherit; }</style>
  <svg data-v-3cba9896="" viewBox="0 0 500 500" version="1.1" xmlns:xlink="http://www.w3.org/1999/xlink" id="svg_null">
    <defs data-v-3cba9896="">
      <path data-v-3cba9896="" d="M364.147 158.98c0 -0.203 -0.025 -0.403 -0.038 -0.603c-0.01 -0.17 -0.01 -0.346 -0.034 -0.514c-0.03 -0.207 -0.08 -0.407 -0.123 -0.61c-0.037 -0.161 -0.053 -0.327 -0.098 -0.489c-0.055 -0.209 -0.134 -0.407 -0.207 -0.612c-0.05 -0.145 -0.091 -0.298 -0.152 -0.44c-0.09 -0.21 -0.2 -0.413 -0.303 -0.617c-0.061 -0.123 -0.118 -0.255 -0.186 -0.376c-0.128 -0.218 -0.276 -0.42 -0.417 -0.623c-0.07 -0.098 -0.127 -0.202 -0.195 -0.296c-0.196 -0.257 -0.412 -0.493 -0.637 -0.727c-0.032 -0.037 -0.062 -0.075 -0.098 -0.11c-0.52 -0.527 -1.121 -0.991 -1.781 -1.373l-105.814 -61.095c-2.653 -1.528 -5.921 -1.522 -8.569 0.014l-105.13 61.094c-0.166 0.096 -0.313 0.21 -0.468 0.316c-0.153 0.103 -0.314 0.196 -0.457 0.307c-0.15 0.119 -0.29 0.25 -0.432 0.378c-0.137 0.12 -0.28 0.234 -0.41 0.362c-0.134 0.136 -0.252 0.289 -0.377 0.432c-0.119 0.134 -0.246 0.264 -0.348 0.405c-0.116 0.152 -0.217 0.316 -0.323 0.477c-0.096 0.148 -0.205 0.29 -0.292 0.44c-0.095 0.165 -0.168 0.34 -0.252 0.511c-0.08 0.162 -0.173 0.314 -0.239 0.48c-0.07 0.178 -0.12 0.36 -0.186 0.54c-0.057 0.17 -0.126 0.336 -0.173 0.509c-0.046 0.18 -0.07 0.366 -0.107 0.546c-0.039 0.184 -0.089 0.363 -0.114 0.552c-0.02 0.185 -0.02 0.371 -0.034 0.558c-0.014 0.184 -0.039 0.37 -0.039 0.557l-0.261 126.354c-0.01 3.061 1.621 5.888 4.269 7.42l105.815 61.09c0 0.001 0.004 0.001 0.006 0.004c1.322 0.762 2.794 1.144 4.272 1.144c0.364 0 0.737 -0.025 1.103 -0.073c0.127 -0.016 0.25 -0.05 0.378 -0.073c0.239 -0.043 0.477 -0.082 0.712 -0.143c0.143 -0.039 0.282 -0.096 0.425 -0.141c0.212 -0.07 0.428 -0.132 0.64 -0.216c0.147 -0.064 0.288 -0.146 0.431 -0.216c0.19 -0.091 0.39 -0.173 0.571 -0.28c0.007 -0.002 0.01 -0.007 0.016 -0.01c0.005 -0.001 0.011 -0.001 0.014 -0.006l105.13 -61.095c2.629 -1.526 4.244 -4.333 4.25 -7.371l0.262 -126.352l0 -0.016l0 -0.013z" id="4ca4a7a7-13ae-463c-ba40-e07588a9b3e3" />
    </defs>
    <g data-v-3cba9896="" id="root" stroke="none" stroke-width="1" fill="none" fill-rule="evenodd">
      <mask data-v-3cba9896="" id="603ee0a8-cb4a-480a-87de-3e7cd9e2e5a7" fill="#fff">
        <use data-v-3cba9896="" xmlns:xlink="http://www.w3.org/1999/xlink" xlink:href="#4ca4a7a7-13ae-463c-ba40-e07588a9b3e3" />
      </mask>
      <use data-v-3cba9896="" id="shape.primary" fill="#15b7b9" xmlns:xlink="http://www.w3.org/1999/xlink" xlink:href="#4ca4a7a7-13ae-463c-ba40-e07588a9b3e3" />
      <path data-v-3cba9896="" d="M250 112.45l-78.554 43.301l0 93.598c0.003 2.518 1.124 4.84 2.946 6.101l72.77 39.329c0.91 0.63 1.822 0.953 2.838 0.953c1.022 0 2.043 -0.318 2.96 -0.953l72.667 -39.342c1.806 -1.257 2.385 -3.915 2.388 -6.425c0.001 -1.673 0.001 -32.76 0 -93.261l-78.015 -43.302z" id="shape.accent" fill-opacity=".2" fill="#f5f5f5" mask="url(#603ee0a8-cb4a-480a-87de-3e7cd9e2e5a7)" />
      <path data-v-3cba9896="" d="M250 112.45c-0.255 122.004 -0.043 183.007 0.635 183.007c1.02 0 2.042 -0.32 2.959 -0.954l72.033 -39.066c1.806 -1.257 2.385 -3.915 2.388 -6.425c0.001 -1.673 0.001 -32.665 0 -92.977l-78.015 -43.586z" id="shape.accent" fill-opacity=".2" fill="#f5f5f5" mask="url(#603ee0a8-cb4a-480a-87de-3e7cd9e2e5a7)" />
      <path data-v-3cba9896="" d="M252.705 227.013c-1.822 -1.053 -4.078 -1.049 -5.9 0.011l-72.431 42.09c-1.818 1.056 -2.932 2.999 -2.927 5.1c0.002 2.1 1.123 4.038 2.943 5.089l72.904 42.092c0.91 0.528 1.926 0.787 2.943 0.787c1.024 0 2.043 -0.263 2.96 -0.796l72.43 -42.09c1.817 -1.056 2.443 -3.208 2.439 -5.307c-0.002 -2.1 -0.635 -3.832 -2.455 -4.883l-72.906 -42.093z" id="shape.accent" fill-opacity=".5" fill="#f5f5f5" mask="url(#603ee0a8-cb4a-480a-87de-3e7cd9e2e5a7)" />
    </g>
  </svg>
</svg>
